<svg xmlns="http://www.w3.org/2000/svg" xmlns:xlink="http://www.w3.org/1999/xlink" viewBox="0 0 1869 288.07"><defs><style>.cls-1{isolation:isolate;}.cls-2{fill:url(#Degradado_sin_nombre_251);}.cls-3{fill:url(#Degradado_sin_nombre_251-2);}.cls-4{fill:url(#Degradado_sin_nombre_251-3);}.cls-5{fill:url(#Degradado_sin_nombre_251-4);}.cls-6{fill:url(#Degradado_sin_nombre_251-5);}.cls-7{fill:url(#Degradado_sin_nombre_251-6);}.cls-8{fill:url(#Degradado_sin_nombre_251-7);}.cls-9{fill:url(#Degradado_sin_nombre_251-8);}.cls-10{fill:url(#Degradado_sin_nombre_251-9);}.cls-11{fill:url(#Degradado_sin_nombre_258);}.cls-12{opacity:0.9;fill:url(#Degradado_sin_nombre_254);}.cls-13{opacity:0.2;fill:url(#Degradado_sin_nombre_98);}.cls-13,.cls-14{mix-blend-mode:multiply;}.cls-14{opacity:0.18;fill:url(#Degradado_sin_nombre_269);}.cls-15{opacity:0.95;fill:url(#Degradado_sin_nombre_251-10);}</style><linearGradient id="Degradado_sin_nombre_251" x1="1563.23" y1="359.57" x2="386.17" y2="663.99" gradientUnits="userSpaceOnUse"><stop offset="0" stop-color="#00afff"/><stop offset="1" stop-color="#004eff"/></linearGradient><linearGradient id="Degradado_sin_nombre_251-2" x1="1573.05" y1="397.54" x2="395.99" y2="701.96" xlink:href="#Degradado_sin_nombre_251"/><linearGradient id="Degradado_sin_nombre_251-3" x1="1583.07" y1="436.29" x2="406.01" y2="740.7" xlink:href="#Degradado_sin_nombre_251"/><linearGradient id="Degradado_sin_nombre_251-4" x1="1589.05" y1="459.4" x2="411.98" y2="763.81" xlink:href="#Degradado_sin_nombre_251"/><linearGradient id="Degradado_sin_nombre_251-5" x1="1603.66" y1="515.88" x2="426.59" y2="820.29" xlink:href="#Degradado_sin_nombre_251"/><linearGradient id="Degradado_sin_nombre_251-6" x1="1616.58" y1="565.83" x2="439.51" y2="870.25" xlink:href="#Degradado_sin_nombre_251"/><linearGradient id="Degradado_sin_nombre_251-7" x1="1620.62" y1="581.48" x2="443.56" y2="885.89" xlink:href="#Degradado_sin_nombre_251"/><linearGradient id="Degradado_sin_nombre_251-8" x1="1633.86" y1="632.65" x2="456.79" y2="937.06" xlink:href="#Degradado_sin_nombre_251"/><linearGradient id="Degradado_sin_nombre_251-9" x1="1570.85" y1="743.75" x2="887.19" y2="961.73" xlink:href="#Degradado_sin_nombre_251"/><linearGradient id="Degradado_sin_nombre_258" x1="178.89" y1="682.79" x2="455.93" y2="682.79" gradientUnits="userSpaceOnUse"><stop offset="0" stop-color="#ff4e35"/><stop offset="0.32" stop-color="#f9793b"/><stop offset="1" stop-color="#e6cb47"/></linearGradient><linearGradient id="Degradado_sin_nombre_254" x1="22" y1="615.22" x2="502.25" y2="615.22" gradientUnits="userSpaceOnUse"><stop offset="0.39" stop-color="#f9793b"/><stop offset="1" stop-color="#004eff"/></linearGradient><linearGradient id="Degradado_sin_nombre_98" x1="162.86" y1="646.95" x2="371.3" y2="529.24" gradientUnits="userSpaceOnUse"><stop offset="0" stop-color="#fff"/><stop offset="1"/></linearGradient><linearGradient id="Degradado_sin_nombre_269" x1="176.47" y1="759.3" x2="374.54" y2="644.83" gradientUnits="userSpaceOnUse"><stop offset="0"/><stop offset="1" stop-color="#fff"/></linearGradient><linearGradient id="Degradado_sin_nombre_251-10" x1="39.34" y1="540.46" x2="486.78" y2="540.46" xlink:href="#Degradado_sin_nombre_251"/></defs><title>2</title><g class="cls-1"><g id="Capa_1" data-name="Capa 1"><path class="cls-2" d="M708.48,521.86a13.47,13.47,0,0,1,3.79,10V653.59a13.22,13.22,0,0,1-3.79,9.54,12.85,12.85,0,0,1-9.68,3.93,12.64,12.64,0,0,1-9.54-3.79,13.37,13.37,0,0,1-3.65-9.68v-7.3A60,60,0,0,1,665.69,663a56.07,56.07,0,0,1-27.22,6.87A63.6,63.6,0,0,1,603.83,660a67.37,67.37,0,0,1-24.41-27.36q-8.84-17.53-8.84-39.42t8.84-39.42a67.77,67.77,0,0,1,24.27-27.35,62,62,0,0,1,33.95-9.82,62.67,62.67,0,0,1,27.64,6.17,57.26,57.26,0,0,1,20.34,15.71v-6.73a13.86,13.86,0,0,1,3.65-9.82,12.4,12.4,0,0,1,9.54-3.93A13.11,13.11,0,0,1,708.48,521.86ZM665,638.44a45.55,45.55,0,0,0,16-18.52,60,60,0,0,0,5.75-26.65A59.39,59.39,0,0,0,681,566.89a46.6,46.6,0,0,0-16-18.66,41.09,41.09,0,0,0-23.43-6.87,41.65,41.65,0,0,0-23.43,6.73,45.46,45.46,0,0,0-16,18.52,64.63,64.63,0,0,0,0,53.31,45.48,45.48,0,0,0,16,18.52,44.12,44.12,0,0,0,46.85,0Z" transform="translate(-22 -450.84)"/><path class="cls-3" d="M852.69,523.69q14.73,7,14.73,18a13.2,13.2,0,0,1-3.09,8.56,9.71,9.71,0,0,1-7.86,3.79,12.32,12.32,0,0,1-5.75-1.12,63,63,0,0,1-5.75-3.65,30.57,30.57,0,0,0-5.33-3.93,36.94,36.94,0,0,0-9.54-2.8,63.6,63.6,0,0,0-11.22-1.12,49.16,49.16,0,0,0-25.81,6.73,45.84,45.84,0,0,0-17.39,18.66,56.79,56.79,0,0,0-6.17,26.51,57.61,57.61,0,0,0,6,26.65,45.75,45.75,0,0,0,17,18.52,46.67,46.67,0,0,0,25,6.73q14.58,0,23.57-4.49a55.51,55.51,0,0,0,5.33-3.65,33.38,33.38,0,0,1,4.91-3.37,11,11,0,0,1,5.19-1.12,11.42,11.42,0,0,1,8.84,3.5,13,13,0,0,1,3.23,9.12q0,5.89-7.44,11.64t-19.92,9.4a95.28,95.28,0,0,1-26.79,3.65q-21.32,0-37.59-10a66.69,66.69,0,0,1-25.11-27.49q-8.84-17.53-8.84-39.14t9.26-39.14a69,69,0,0,1,25.81-27.49q16.55-10,37.88-10Q838,516.67,852.69,523.69Z" transform="translate(-22 -450.84)"/><path class="cls-4" d="M1024.94,521.86a13.47,13.47,0,0,1,3.79,10V653.59a13.22,13.22,0,0,1-3.79,9.54,12.85,12.85,0,0,1-9.68,3.93,12.64,12.64,0,0,1-9.54-3.79,13.37,13.37,0,0,1-3.65-9.68v-7.3A60,60,0,0,1,982.16,663a56.07,56.07,0,0,1-27.22,6.87A63.6,63.6,0,0,1,920.3,660a67.37,67.37,0,0,1-24.41-27.36q-8.84-17.53-8.84-39.42t8.84-39.42a67.77,67.77,0,0,1,24.27-27.35,62,62,0,0,1,33.95-9.82,62.67,62.67,0,0,1,27.64,6.17,57.26,57.26,0,0,1,20.34,15.71v-6.73a13.86,13.86,0,0,1,3.65-9.82,12.4,12.4,0,0,1,9.54-3.93A13.11,13.11,0,0,1,1024.94,521.86ZM981.46,638.44a45.55,45.55,0,0,0,16-18.52,60,60,0,0,0,5.75-26.65,59.39,59.39,0,0,0-5.75-26.37,46.6,46.6,0,0,0-16-18.66A41.09,41.09,0,0,0,958,541.36a41.65,41.65,0,0,0-23.43,6.73,45.46,45.46,0,0,0-16,18.52,64.63,64.63,0,0,0,0,53.31,45.48,45.48,0,0,0,16,18.52,44.12,44.12,0,0,0,46.85,0Z" transform="translate(-22 -450.84)"/><path class="cls-5" d="M1197.2,463.23a13.11,13.11,0,0,1,3.79,9.68V653.59a13.22,13.22,0,0,1-3.79,9.54,12.85,12.85,0,0,1-9.68,3.93,12.64,12.64,0,0,1-9.54-3.79,13.37,13.37,0,0,1-3.65-9.68v-7.85q-7,10.1-19.78,17.11a56,56,0,0,1-27.36,7A62.9,62.9,0,0,1,1092.7,660a68.7,68.7,0,0,1-24.41-27.36q-9-17.53-9-39.42t8.84-39.42a67.77,67.77,0,0,1,24.27-27.35,63.9,63.9,0,0,1,61.44-3.65,58.81,58.81,0,0,1,20.48,16V472.91a13.37,13.37,0,0,1,3.65-9.68,12.64,12.64,0,0,1,9.54-3.79A13.11,13.11,0,0,1,1197.2,463.23Zm-43.49,175.21a45.55,45.55,0,0,0,16-18.52,64.3,64.3,0,0,0,0-53.17,45.34,45.34,0,0,0-16-18.66,44.12,44.12,0,0,0-46.85,0,45.27,45.27,0,0,0-16,18.66,64.3,64.3,0,0,0,0,53.17,45.48,45.48,0,0,0,16,18.52,44.12,44.12,0,0,0,46.85,0Z" transform="translate(-22 -450.84)"/><path class="cls-6" d="M1365.4,596.49a13.44,13.44,0,0,1-9.26,3.51h-98.76q2,20.48,15.57,32.82t33.25,12.35q13.47,0,21.88-3.93a54.88,54.88,0,0,0,14.87-10.1,15.82,15.82,0,0,1,8.14-2.52,10.63,10.63,0,0,1,8,3.37,11,11,0,0,1,3.23,7.85q0,5.89-5.61,10.66-8.14,8.14-21.6,13.75a71,71,0,0,1-27.49,5.61q-22.72,0-40-9.54A66.43,66.43,0,0,1,1241,633.67q-9.4-17.11-9.4-38.72,0-23.57,9.68-41.38t25.53-27.35a65.75,65.75,0,0,1,67.75-.28,70.36,70.36,0,0,1,25.25,25.53,72.88,72.88,0,0,1,9.82,36.47A12,12,0,0,1,1365.4,596.49Zm-91.74-46.29q-11.5,8.84-15.15,27.35h82.76v-2.25a34.31,34.31,0,0,0-13.33-24.41,42.2,42.2,0,0,0-27.07-9.54Q1285.16,541.36,1273.66,550.2Z" transform="translate(-22 -450.84)"/><path class="cls-7" d="M1618.18,578.68v74.91a13.39,13.39,0,0,1-3.65,9.68,12.65,12.65,0,0,1-9.54,3.79,12.85,12.85,0,0,1-9.68-3.93,13.22,13.22,0,0,1-3.79-9.54V579q0-36.75-30.86-36.75a40.08,40.08,0,0,0-19.78,4.91,35.54,35.54,0,0,0-13.75,13.33,36.06,36.06,0,0,0-4.91,18.52v74.63a13.22,13.22,0,0,1-3.79,9.54,12.85,12.85,0,0,1-9.68,3.93,12.64,12.64,0,0,1-9.54-3.79,13.37,13.37,0,0,1-3.65-9.68V578.68q0-16.55-7-26.51t-23.29-10q-16.56,0-27.35,10.52a34.8,34.8,0,0,0-10.8,25.95v74.91a13.22,13.22,0,0,1-3.79,9.54,12.85,12.85,0,0,1-9.68,3.93,12.64,12.64,0,0,1-9.54-3.79,13.37,13.37,0,0,1-3.65-9.68V533.51a13.24,13.24,0,0,1,3.79-9.54,12.54,12.54,0,0,1,9.4-3.93,12.87,12.87,0,0,1,9.68,3.93,13.24,13.24,0,0,1,3.79,9.54v9.82a61.33,61.33,0,0,1,19.5-18.38,50,50,0,0,1,26.52-7.44q34.78,0,45.17,30.86,6.17-11.78,20.48-21.32a53.75,53.75,0,0,1,30.3-9.54Q1618.17,517.52,1618.18,578.68Z" transform="translate(-22 -450.84)"/><path class="cls-8" d="M1658.15,497.17q-3.51-2.94-3.5-9.4v-4.49q0-6.73,3.79-9.54t11.64-2.8q7.85,0,11.36,2.95t3.51,9.4v4.49q0,6.73-3.65,9.54t-11.5,2.8Q1661.66,500.12,1658.15,497.17Zm21.32,165.95a12.85,12.85,0,0,1-9.68,3.93,12.51,12.51,0,0,1-9.4-3.93,13.22,13.22,0,0,1-3.79-9.54V532.11a13.25,13.25,0,0,1,3.79-9.54,12.53,12.53,0,0,1,9.4-3.93,12.87,12.87,0,0,1,9.68,3.93,13.25,13.25,0,0,1,3.79,9.54V653.59A13.22,13.22,0,0,1,1679.48,663.12Z" transform="translate(-22 -450.84)"/><path class="cls-9" d="M1822.56,523.69q14.73,7,14.73,18a13.19,13.19,0,0,1-3.09,8.56,9.7,9.7,0,0,1-7.85,3.79,12.31,12.31,0,0,1-5.75-1.12,62.56,62.56,0,0,1-5.75-3.65,30.57,30.57,0,0,0-5.33-3.93,36.92,36.92,0,0,0-9.54-2.8,63.56,63.56,0,0,0-11.22-1.12,49.16,49.16,0,0,0-25.81,6.73,45.86,45.86,0,0,0-17.4,18.66,56.83,56.83,0,0,0-6.17,26.51,57.59,57.59,0,0,0,6,26.65,45.76,45.76,0,0,0,17,18.52,46.68,46.68,0,0,0,25,6.73q14.58,0,23.57-4.49a55.49,55.49,0,0,0,5.33-3.65,33.38,33.38,0,0,1,4.91-3.37,11,11,0,0,1,5.19-1.12,11.42,11.42,0,0,1,8.84,3.5,13,13,0,0,1,3.23,9.12q0,5.89-7.43,11.64t-19.92,9.4a95.29,95.29,0,0,1-26.79,3.65q-21.33,0-37.59-10a66.68,66.68,0,0,1-25.11-27.49q-8.84-17.53-8.84-39.14t9.26-39.14a69,69,0,0,1,25.81-27.49q16.55-10,37.87-10Q1807.82,516.67,1822.56,523.69Z" transform="translate(-22 -450.84)"/><path class="cls-10" d="M1881.84,631.55a18.09,18.09,0,0,1,9.16,16,18.36,18.36,0,0,1-2.47,9.41,17.65,17.65,0,0,1-6.7,6.62,19.13,19.13,0,0,1-18.49,0,17.64,17.64,0,0,1-6.7-6.62,18.36,18.36,0,0,1-2.47-9.41,18.5,18.5,0,0,1,27.66-16Zm-1.81,29a13.74,13.74,0,0,0,5.26-5.3,16.26,16.26,0,0,0,0-15.37,13.78,13.78,0,0,0-5.26-5.3,14.8,14.8,0,0,0-7.44-1.89,15,15,0,0,0-7.48,1.89,14,14,0,0,0-5.34,5.3,16,16,0,0,0,0,15.37,14,14,0,0,0,5.34,5.3,15,15,0,0,0,7.48,1.89A14.78,14.78,0,0,0,1880,660.52Zm.29-5a1,1,0,0,1,0,.78,1.46,1.46,0,0,1-.9,1,2.75,2.75,0,0,1-1.64.16,2.62,2.62,0,0,1-1.81-1.36,6.31,6.31,0,0,1-.74-3.33,3.63,3.63,0,0,0-.7-2.34,2.54,2.54,0,0,0-2.1-.86h-3v6.25a1.44,1.44,0,0,1-.53,1.07,1.72,1.72,0,0,1-1.19.49,1.65,1.65,0,0,1-1.15-.45,1.44,1.44,0,0,1-.49-1.11V639.07a1.33,1.33,0,0,1,.37-.91,1.21,1.21,0,0,1,.94-.41h6q6.66,0,6.66,5.59,0,3.62-3.95,4.77a5.7,5.7,0,0,1,1.81,1.81,4.61,4.61,0,0,1,.74,2.55,7.22,7.22,0,0,0,.29,1.81,1.11,1.11,0,0,0,.78.74A1,1,0,0,1,1880.32,655.55Zm-4.68-9.78a2.54,2.54,0,0,0,1.07-2.18,2.24,2.24,0,0,0-.9-2.05,5.12,5.12,0,0,0-2.71-.58h-3.7v5.59h3.45A4.62,4.62,0,0,0,1875.63,645.77Z" transform="translate(-22 -450.84)"/><path class="cls-11" d="M203.69,681.92l193.15-55.26,59.09,34.7L220,734.59a86.3,86.3,0,0,1-19.59,4.27c-8.76.71-17.59-7.83-20.15-17.24-2.3-8.43-2.15-16.91,3.11-25.63C190.38,684.48,203.69,681.92,203.69,681.92Z" transform="translate(-22 -450.84)"/><path class="cls-12" d="M483.39,546.23,431,561l-97.52-65.34a22.62,22.62,0,0,0-15.26-.78L41.42,582.27c-24.75,9.58-21.35,34.44-14.2,41.81A101.47,101.47,0,0,0,40.05,634.5l151.5,102c-16.32-11.91-14.56-31-7.59-41.19a33.13,33.13,0,0,1,18.84-13.19c38.05-10.67,189.85-53.35,264.49-76.46,14.33-4.44,30.3-8.64,34.18-26.22a32.62,32.62,0,0,0-2.76-21.92,27.66,27.66,0,0,0-12-12.21" transform="translate(-22 -450.84)"/><path class="cls-13" d="M502.56,568.32c2.17,26.57-18,31.53-34.81,36.87-42.41,13.45-117.53,35-189.56,55.5-56.45,16.07-58.12,16.48-75.78,21.6-7.73,2.24-13.62,7.2-18.52,13.58-6.1,7.94-9.09,29,7.14,40.31L33.72,630.7a20.34,20.34,0,0,1-6.38-7.3c-4-9.4-10.56-32.08,14.21-41.61l275.82-87.43a24.93,24.93,0,0,1,21.44,3.19l93.12,63.34,36.27-10.23L487,544.92S501.25,552.32,502.56,568.32Z" transform="translate(-22 -450.84)"/><path class="cls-14" d="M207.36,681l36.13-10.29,73.75-21,79.59-23.1,58.67,34.47L220.14,734.51a92.34,92.34,0,0,1-19.93,4.31c-8.63.69-17.53-8.39-20.05-17.59-2.27-8.26-1.85-16.74,3.39-25.24C191.14,683.64,207.36,681,207.36,681Z" transform="translate(-22 -450.84)"/><path class="cls-15" d="M39.34,541.93l150.51,88.14,296.92-84.73-138.4-91.18a43,43,0,0,0-29.28-1.42Z" transform="translate(-22 -450.84)"/></g></g></svg>